<?xml version="1.0" encoding="UTF-8"?>
<svg id="Calque_1" data-name="Calque 1" xmlns="http://www.w3.org/2000/svg" width="48" height="48" viewBox="0 0 48 48">
  <path d="M24,7.42c5.4,0,6.04,.02,8.17,.12,1.97,.09,3.04,.42,3.76,.7,.88,.32,1.67,.84,2.33,1.51,.67,.65,1.19,1.45,1.51,2.33,.28,.71,.61,1.78,.7,3.76,.1,2.13,.12,2.77,.12,8.17s-.02,6.04-.12,8.17c-.09,1.97-.42,3.04-.7,3.76-.68,1.76-2.07,3.16-3.84,3.84-.71,.28-1.78,.61-3.76,.7-2.13,.1-2.77,.12-8.17,.12s-6.04-.02-8.17-.12c-1.97-.09-3.04-.42-3.76-.7-.88-.32-1.67-.84-2.33-1.51-.67-.65-1.19-1.45-1.51-2.33-.28-.71-.61-1.78-.7-3.76-.1-2.13-.12-2.77-.12-8.17s.02-6.04,.12-8.17c.09-1.97,.42-3.04,.7-3.76,.32-.88,.84-1.67,1.51-2.33,.65-.67,1.45-1.19,2.33-1.51,.71-.28,1.78-.61,3.76-.7,2.13-.1,2.77-.12,8.17-.12m0-3.64c-5.49,0-6.18,.02-8.34,.12-2.15,.1-3.62,.44-4.91,.94-1.35,.51-2.57,1.3-3.58,2.33-1.03,1.01-1.83,2.23-2.33,3.58-.5,1.29-.84,2.76-.94,4.91-.1,2.16-.12,2.85-.12,8.34s.02,6.18,.12,8.34c.1,2.15,.44,3.62,.94,4.91,.51,1.35,1.3,2.57,2.33,3.58,1.01,1.03,2.23,1.83,3.58,2.33,1.29,.5,2.76,.84,4.91,.94,2.16,.1,2.85,.12,8.34,.12s6.18-.02,8.34-.12c2.15-.1,3.62-.44,4.91-.94,2.72-1.05,4.86-3.2,5.92-5.92,.5-1.29,.84-2.76,.94-4.91,.1-2.16,.12-2.85,.12-8.34s-.02-6.18-.12-8.34c-.1-2.15-.44-3.62-.94-4.91-.51-1.35-1.3-2.57-2.33-3.58-1.01-1.03-2.23-1.83-3.58-2.33-1.29-.5-2.76-.84-4.91-.94-2.17-.09-2.86-.11-8.35-.11h0Z"/>
  <path d="M24,13.62c-5.74,0-10.39,4.65-10.39,10.39s4.65,10.39,10.39,10.39,10.39-4.65,10.39-10.39h0c0-5.74-4.65-10.39-10.39-10.39Zm0,17.13c-3.72,0-6.74-3.02-6.74-6.74s3.02-6.74,6.74-6.74,6.74,3.02,6.74,6.74-3.02,6.74-6.74,6.74Z"/>
  <circle cx="34.79" cy="13.21" r="2.43"/>
</svg>