<?xml version="1.0" encoding="UTF-8"?>
<svg id="Calque_1" data-name="Calque 1" xmlns="http://www.w3.org/2000/svg" width="48" height="48" viewBox="0 0 48 48">
  <g id="Layer_2" data-name="Layer 2">
    <g id="Contact_Us" data-name="Contact Us">
      <g id="LinkedIn">
        <path d="M38.22,38.21h-5.99v-9.4c0-2.24,0-5.12-3.11-5.12s-3.59,2.43-3.59,4.95v9.54h-5.99V18.92h5.76v2.64h0c1.18-2,3.35-3.19,5.67-3.11,6.08,0,7.19,3.99,7.19,9.18l.07,10.58ZM12.78,16.29h0c-1.92-.03-3.45-1.61-3.42-3.53s1.61-3.45,3.53-3.42c1.9,.03,3.42,1.58,3.42,3.48h0c0,1.93-1.58,3.48-3.5,3.48h-.03m3,21.91h-5.99V18.92h5.99v19.28ZM41.2,3.78H6.77c-1.62,0-2.95,1.3-2.98,2.92V41.32c.02,1.62,1.35,2.93,2.98,2.92H41.2c1.63,.02,2.97-1.29,3-2.92V6.69c-.04-1.63-1.38-2.92-3-2.91"/>
      </g>
    </g>
  </g>
</svg>